<?xml version="1.0" encoding="UTF-8" standalone="no"?>
<svg
   xmlns:dc="http://purl.org/dc/elements/1.1/"
   xmlns:cc="http://creativecommons.org/ns#"
   xmlns:rdf="http://www.w3.org/1999/02/22-rdf-syntax-ns#"
   xmlns:svg="http://www.w3.org/2000/svg"
   xmlns="http://www.w3.org/2000/svg"
   id="svg8"
   version="1.1"
   viewBox="0 0 210 297"
   height="297mm"
   width="210mm">
  <defs
     id="defs2" />
  <metadata
     id="metadata5">
    <rdf:RDF>
      <cc:Work
         rdf:about="">
        <dc:format>image/svg+xml</dc:format>
        <dc:type
           rdf:resource="http://purl.org/dc/dcmitype/StillImage" />
        <dc:title></dc:title>
      </cc:Work>
    </rdf:RDF>
  </metadata>
  <g
     id="layer1">
    <path
       id="path870"
       d="m 107.18389,215.84404 c -0.16473,-0.42926 -3.85387,-6.76719 -10.612877,-18.23287 -1.62991,-2.7649 -3.71176,-6.33677 -4.62635,-7.9375 -0.91458,-1.60073 -2.82306,-4.87495 -4.24106,-7.27604 -1.418,-2.4011 -4.27738,-7.28266 -6.35417,-10.84792 -2.0768,-3.56526 -5.34916,-9.1612 -7.27191,-12.43542 -4.95522,-8.43812 -5.645325,-9.64713 -5.557718,-9.73657 0.04271,-0.0436 0.871978,0.059 1.842828,0.22811 0.97085,0.16906 1.8251,0.24747 1.89833,0.17423 0.0732,-0.0732 -1.60012,-3.59814 -3.718584,-7.83312 -2.118463,-4.23497 -3.851751,-7.76028 -3.851751,-7.83401 0,-0.0737 0.148828,-0.12942 0.330729,-0.12375 0.181901,0.006 1.252985,1.64278 2.380189,3.63802 2.443397,4.32501 5.462967,9.57334 9.850657,17.12147 1.7764,3.05593 5.11372,8.83047 7.41626,12.83229 2.30254,4.00182 5.02218,8.70479 6.04365,10.45104 1.02146,1.74625 3.12054,5.37766 4.6646,8.06979 8.065077,14.06179 11.766637,20.37292 11.948977,20.37292 0.19495,0 2.41612,-3.666 6.97335,-11.50938 6.08417,-10.47136 12.22966,-20.99243 18.39101,-31.48541 1.70896,-2.91042 3.44116,-5.88698 3.84932,-6.61459 0.40817,-0.7276 2.07218,-3.5851 3.6978,-6.35 1.62562,-2.76489 4.43198,-7.55466 6.23634,-10.64391 1.80436,-3.08926 3.42948,-5.61934 3.61138,-5.6224 0.1819,-0.003 0.33073,0.0305 0.33073,0.0746 0,0.0441 -0.69054,1.38356 -1.53454,2.97656 -3.83264,7.23396 -6.50655,12.53827 -6.38288,12.66194 0.0742,0.0742 0.89447,-0.10147 1.8228,-0.3904 0.92834,-0.28893 1.77914,-0.49248 1.89068,-0.45233 0.11154,0.0402 -0.5772,1.38268 -1.53054,2.98341 -0.95334,1.60073 -3.06941,5.23214 -4.70237,8.0698 -1.63297,2.83765 -4.0757,7.06437 -5.4283,9.3927 -4.22167,7.26709 -9.03466,15.57799 -13.63702,23.54792 -2.43696,4.22011 -5.65141,9.75651 -7.1432,12.30313 -1.4918,2.54661 -3.4509,5.93989 -4.35355,7.54062 -1.89881,3.36727 -1.99888,3.49666 -2.23281,2.88704 z m 0.0199,-36.37716 c -0.37064,-1.22574 -1.52731,-5.14566 -2.57038,-8.71092 -1.04308,-3.56526 -1.98331,-6.57523 -2.0894,-6.68882 -0.10609,-0.11359 -2.38409,1.03921 -5.062227,2.56177 -2.67814,1.52256 -4.90117,2.73647 -4.94006,2.69758 -0.0389,-0.0389 0.87043,-2.08466 2.02072,-4.54615 1.1503,-2.46148 2.05466,-4.51383 2.00971,-4.56077 -0.045,-0.0469 -2.07324,0.22501 -4.50732,0.60434 -2.43407,0.37932 -4.48107,0.6342 -4.54889,0.56639 -0.12565,-0.12566 3.8898,-2.79332 10.77678,-7.15957 2.110047,-1.33774 3.990657,-2.52296 4.179137,-2.63381 0.20864,-0.12272 1.26869,0.32494 2.7099,1.14437 1.30196,0.74025 2.51697,1.34375 2.70002,1.34111 0.18305,-0.003 1.39701,-0.6021 2.6977,-1.33212 1.30069,-0.73002 2.51887,-1.26823 2.70705,-1.19601 0.87223,0.33471 15.74663,9.45153 15.62269,9.57546 -0.0473,0.0473 -1.9845,-0.0887 -4.30489,-0.30219 -2.3204,-0.21349 -4.47914,-0.38866 -4.7972,-0.38925 -0.54576,-0.001 -0.47683,0.2482 1.22548,4.43069 0.99208,2.43747 1.77168,4.46802 1.73246,4.51233 -0.0392,0.0443 -2.19023,-1.23747 -4.78002,-2.84838 -2.58979,-1.61091 -4.78457,-2.83779 -4.87729,-2.72639 -0.0927,0.1114 -1.21411,4.01254 -2.49198,8.66921 -1.27787,4.65667 -2.4167,8.63611 -2.53074,8.84321 -0.13682,0.24846 -0.43659,-0.38155 -0.88125,-1.85208 z m -4.67774,-30.45141 c -2.837657,-1.60264 -7.879537,-4.43018 -11.204187,-6.28343 -3.32465,-1.85326 -6.05039,-3.47779 -6.0572,-3.61008 -0.007,-0.13229 0.7732,-0.71909 1.73336,-1.30399 0.96015,-0.58491 1.86929,-1.18703 2.02031,-1.33804 0.18971,-0.18971 -0.48125,-0.54588 -2.17083,-1.15236 -5.19105,-1.86334 -19.660881,-7.2304 -19.998455,-7.41771 -0.373444,-0.2072 4.534905,-0.53489 8.400315,-0.56082 1.25046,-0.008 2.73994,-0.0981 3.30996,-0.19936 l 1.0364,-0.18411 -3.68223,-2.67285 c -3.22731,-2.34263 -10.798207,-7.70073 -22.53436,-15.94807 -3.337482,-2.34535 -4.40893,-3.24267 -3.417747,-2.86232 0.414238,0.15896 7.59748,2.49397 26.545947,8.62912 4.53465,1.46823 8.32434,2.66951 8.42154,2.66951 0.0972,0 0.0983,-0.35719 0.002,-0.79375 -0.0959,-0.43656 -0.11153,-0.79375 -0.0348,-0.79375 0.0768,0 2.94548,1.79812 6.37492,3.99584 l 6.23535,3.99583 -2.18671,2.38182 c -3.0382,3.30928 -6.00077,6.67045 -5.93626,6.73495 0.0297,0.0297 2.52883,-0.45434 5.55362,-1.07566 6.259567,-1.28575 5.622167,-1.43474 6.399627,1.49586 0.26058,0.98227 0.54542,1.78302 0.63296,1.77944 0.22299,-0.009 2.71492,-4.27281 2.57755,-4.41019 -0.0617,-0.0617 -0.55636,0.0733 -1.09918,0.30015 -0.54282,0.22681 -1.076,0.41237 -1.18484,0.41237 -0.10884,0 -0.34949,-0.54149 -0.53479,-1.20331 -0.30751,-1.09831 -0.39709,-1.19117 -1.02657,-1.06411 -1.265117,0.25537 -5.837477,0.94451 -6.266667,0.94451 -0.2432,0 0.87971,-1.3675 2.6391,-3.21393 l 3.062417,-3.21394 -1.409567,-1.08554 c -0.77526,-0.59705 -3.10495,-2.37559 -5.17709,-3.95231 -2.07214,-1.57672 -3.71299,-2.92129 -3.64635,-2.98794 0.0666,-0.0667 1.9942,0.34993 4.28346,0.92574 l 4.16227,1.04691 -0.1608,-0.77096 c -0.0884,-0.42402 -0.23522,-1.12814 -0.32617,-1.5647 -0.0953,-0.45737 -0.0547,-0.79375 0.0957,-0.79375 0.14359,0 1.06428,0.36419 2.045977,0.80932 0.9817,0.44513 1.8119,0.77255 1.84489,0.7276 0.033,-0.0449 -0.98722,-3.46706 -2.267117,-7.60471 -1.27991,-4.13765 -2.39413,-7.888121 -2.47607,-8.334381 -0.14399,-0.78428 -0.13535,-0.79288 0.2589,-0.25762 2.11912,2.877101 8.153147,11.131761 8.945177,12.237161 l 1.00604,1.4041 0.86233,-1.14438 c 0.47429,-0.62941 2.9225,-4.09118 5.44048,-7.69282 2.51798,-3.60164 4.63789,-6.548441 4.71092,-6.548441 0.17813,0 0.24319,-0.2135 -2.813,9.230761 -1.47808,4.56759 -2.64628,8.34586 -2.59598,8.39615 0.0503,0.0503 0.88703,-0.22422 1.85942,-0.61002 0.9724,-0.3858 1.82966,-0.63979 1.90504,-0.56441 0.0754,0.0754 -0.004,0.7497 -0.17721,1.49848 -0.17284,0.7488 -0.24902,1.42668 -0.16929,1.5064 0.0797,0.0797 1.84082,-0.2821 3.91353,-0.80407 2.07272,-0.52197 3.88855,-0.90905 4.0352,-0.86017 0.14664,0.0489 -1.80247,1.62366 -4.33137,3.4995 -2.52889,1.87584 -4.77353,3.56859 -4.98808,3.76166 -0.3356,0.30201 0.0477,0.78994 2.74404,3.49336 1.72377,1.72827 3.08993,3.25332 3.03592,3.389 -0.0558,0.14005 -1.69944,-0.0627 -3.80237,-0.46899 -2.03729,-0.39362 -3.73753,-0.68595 -3.77831,-0.64963 -0.0408,0.0363 -0.18601,0.75337 -0.32273,1.59344 -0.13673,0.84008 -0.30623,1.58505 -0.37668,1.6555 -0.0705,0.0704 -0.60983,-0.25346 -1.19862,-0.71979 -0.58879,-0.46634 -1.07053,-0.78584 -1.07053,-0.71 0,0.0758 0.65157,1.17565 1.44794,2.44404 0.86196,1.37285 1.50098,2.15591 1.57898,1.93488 0.0721,-0.20421 0.37011,-1.25145 0.66231,-2.32721 0.2922,-1.07575 0.56392,-1.98171 0.60383,-2.01325 0.0399,-0.0315 2.57287,0.51941 5.62881,1.22432 3.05594,0.70491 5.66839,1.24607 5.80545,1.20258 0.13706,-0.0435 -1.7977,-2.18348 -4.29948,-4.75554 -2.50177,-2.57206 -4.54632,-4.7671 -4.54344,-4.87787 0.003,-0.11077 1.51563,-1.15391 3.36168,-2.31807 1.84605,-1.16417 4.78366,-3.03631 6.52803,-4.16032 1.74436,-1.12401 3.20159,-2.01363 3.23827,-1.97695 0.0367,0.0367 -0.0332,0.50985 -0.15539,1.05146 -0.13962,0.61907 -0.12558,0.98476 0.0378,0.98476 0.27115,0 14.0186,-4.44211 26.22581,-8.47416 3.90202,-1.28884 7.05717,-2.23892 7.01146,-2.11129 -0.0869,0.24252 -2.06663,1.71254 -18.71006,13.89275 l -10.12298,7.40833 3.92391,0.16428 c 2.15816,0.0904 5.10859,0.17965 6.55652,0.19844 1.46773,0.019 2.52139,0.1336 2.38125,0.2589 -0.23654,0.21151 -12.42964,5.42446 -17.78,7.60154 -1.34606,0.54772 -2.44635,1.0647 -2.44508,1.14884 0.001,0.0842 0.71565,0.61259 1.5875,1.17432 0.87186,0.56172 1.58519,1.10078 1.58519,1.19791 0,0.15588 -22.36984,13.02573 -22.55038,12.97371 -0.0393,-0.0113 -2.39321,-1.33184 -5.23087,-2.93447 z m 6.10188,-13.3168 0.87599,-9.78959 -0.9084,-1.27715 -0.90839,-1.27714 -0.86378,1.01256 c -0.47508,0.55691 -0.93494,1.2808 -1.02192,1.60865 -0.12811,0.48292 1.74836,19.76218 1.90467,19.56893 0.0252,-0.0312 0.44004,-4.46199 0.92183,-9.84626 z m 18.09183,-26.73514 c -0.0992,-0.66157 -0.13627,-1.23667 -0.0824,-1.278 0.0539,-0.0413 1.40771,-0.40969 3.00844,-0.81857 1.60073,-0.40888 6.66088,-1.80586 11.24479,-3.10439 4.58391,-1.29853 10.77516,-3.01616 13.75833,-3.816951 2.98318,-0.80079 8.28146,-2.27317 11.77396,-3.27195 3.4925,-0.99878 6.68969,-1.89985 7.10487,-2.00236 l 0.75486,-0.1864 -1.68183,3.14438 c -0.92501,1.72941 -1.80047,3.335021 -1.94549,3.568031 -0.14501,0.23302 -0.77208,0.5027 -1.39347,0.5993 l -1.12981,0.17563 0.9347,-1.85606 c 0.65913,-1.308871 0.82658,-1.856071 0.56796,-1.856071 -0.2017,0 -2.43562,0.60249 -4.96426,1.33886 -2.52864,0.736371 -7.63362,2.171571 -11.3444,3.189341 -3.71078,1.01776 -10.37828,2.90637 -14.81667,4.19689 -7.46187,2.16966 -11.10743,3.18116 -11.46521,3.18116 -0.0792,0 -0.2252,-0.54128 -0.32441,-1.20284 z m -47.873917,-1.8614 c -3.34698,-0.93763 -9.71682,-2.6667 -14.155205,-3.84239 -7.000036,-1.85423 -17.44258,-4.709061 -18.851562,-5.153731 -0.655976,-0.20702 -0.593346,0.31113 0.326278,2.699351 0.434113,1.12738 0.744826,2.09425 0.690472,2.1486 -0.05435,0.0544 -0.484272,-10e-4 -0.955374,-0.12312 -0.824382,-0.21362 -0.904732,-0.36074 -2.139636,-3.917691 -0.705699,-2.03265 -1.256043,-3.77024 -1.222987,-3.86129 0.03306,-0.0911 1.012602,0.12443 2.176768,0.47887 1.164167,0.35443 6.819635,2.00176 12.567708,3.66071 5.748073,1.658951 14.082448,4.091841 18.520828,5.406421 4.43839,1.31457 8.45806,2.46392 8.93261,2.55411 0.47455,0.0902 0.92872,0.27061 1.00927,0.40093 0.22211,0.35939 -0.14544,1.29304 -0.50085,1.27229 -0.1721,-0.0101 -3.05134,-0.78542 -6.39832,-1.72306 z"
       style="fill:#fbd208;fill-opacity:1;stroke-width:1" />
  </g>
</svg>
