<?xml version="1.0" encoding="UTF-8" standalone="no"?>
<svg
   xmlns:dc="http://purl.org/dc/elements/1.1/"
   xmlns:cc="http://creativecommons.org/ns#"
   xmlns:rdf="http://www.w3.org/1999/02/22-rdf-syntax-ns#"
   xmlns:svg="http://www.w3.org/2000/svg"
   xmlns="http://www.w3.org/2000/svg"
   id="svg8"
   version="1.1"
   viewBox="0 0 210 297"
   height="297mm"
   width="210mm">
  <defs
     id="defs2" />
  <metadata
     id="metadata5">
    <rdf:RDF>
      <cc:Work
         rdf:about="">
        <dc:format>image/svg+xml</dc:format>
        <dc:type
           rdf:resource="http://purl.org/dc/dcmitype/StillImage" />
        <dc:title></dc:title>
      </cc:Work>
    </rdf:RDF>
  </metadata>
  <g
     id="layer1">
    <path
       id="path848"
       d="m 71.738669,218.92915 c -0.49447,-0.33322 -0.87812,-0.72018 -0.85256,-0.8599 0.0256,-0.13972 0.53812,-0.39721 1.13904,-0.57219 3.22197,-0.93821 3.93256,-2.15895 4.26596,-7.32857 0.28294,-4.38727 0.8457,-6.52441 2.31774,-8.80196 3.72349,-5.76095 12.91671,-7.33126 21.070381,-3.59907 1.16416,0.53287 3.66448,1.7116 5.55625,2.6194 6.93086,3.32587 7.67783,3.59235 10.45104,3.72841 2.67339,0.13115 4.68934,-0.20495 7.47029,-1.24543 1.81023,-0.6773 7.35283,-4.67204 9.7692,-7.04099 1.87303,-1.83628 4.62117,-5.50486 5.67544,-7.57634 0.73565,-1.44542 1.27497,-1.67016 3.46555,-1.44407 4.61703,0.47652 7.58732,4.43401 7.58406,10.10468 -0.001,2.4875 -0.43898,3.97191 -2.22271,7.54063 -2.81446,5.63089 -6.81312,9.61745 -12.59076,12.55263 -2.01181,1.02205 -5.22035,1.73649 -7.77399,1.73103 -2.09593,-0.004 -5.94183,-0.86205 -7.9375,-1.76992 -0.94588,-0.4303 -5.74731,-3.31449 -10.66984,-6.4093 -11.81715,-7.42948 -13.28941,-8.06979 -18.566621,-8.07483 -2.49474,-0.002 -3.11022,0.0867 -4.30945,0.6238 -3.99131,1.78757 -5.31757,6.22042 -3.87251,12.94336 0.13802,0.6421 0.0586,0.60144 -0.87309,-0.44709 l -1.02492,-1.15343 -0.51626,1.15102 c -1.49562,3.33454 -5.15383,4.9461 -7.55474,3.32813 z m 32.438471,-8.00879 c -2.32833,-0.94968 -6.31692,-2.56988 -8.86354,-3.60044 -2.54661,-1.03057 -4.779031,-1.99257 -4.960941,-2.13778 -0.56207,-0.4487 -0.38306,-1.40472 0.33498,-1.789 0.5713,-0.30575 0.87491,-0.29032 2.141011,0.10878 1.83911,0.57973 7.6082,3.45692 9.86567,4.92027 0.93069,0.6033 2.7428,1.68917 4.02691,2.41305 4.30426,2.42639 3.28005,2.46066 -2.54409,0.0851 z M 79.759959,196.58239 c -0.29205,-0.25466 -2.47745,-2.66567 -4.85644,-5.35781 -2.37899,-2.69214 -5.68434,-6.38307 -7.34522,-8.20208 -1.9047,-2.08604 -3.27306,-3.84465 -3.70568,-4.7625 l -0.68589,-1.45521 -0.0555,-19.00236 c -0.032,-10.96296 0.0438,-18.96654 0.1791,-18.9177 0.36237,0.13074 5.0319,7.28464 5.61438,8.60143 0.49499,1.119 0.51604,1.83421 0.49156,16.69906 -0.0237,14.37016 0.009,15.57939 0.43621,16.19144 0.67357,0.96485 2.27812,2.92229 7.6879,9.37874 2.65576,3.16959 4.82865,5.87011 4.82865,6.00117 0,0.23087 -1.54737,1.28586 -1.88892,1.28785 -0.093,5.3e-4 -0.40808,-0.20737 -0.70014,-0.46203 z m 70.743301,-4.23096 c -0.88598,-2.86636 -2.5221,-4.93122 -4.84726,-6.11743 -2.8631,-1.46064 -8.92587,-1.46025 -14.22677,8e-4 -2.97955,0.8213 -3.43561,0.87525 -7.40834,0.87651 -4.11578,0.001 -4.29393,-0.0219 -6.41581,-0.83456 -2.46783,-0.94521 -5.55269,-3.28467 -7.05207,-5.34805 -1.49213,-2.0533 -4.92066,-8.34205 -4.92066,-9.02556 0,-0.18605 0.70554,0.33469 1.56786,1.15721 0.86232,0.82251 1.67342,1.49548 1.80245,1.49548 0.12902,0 1.22573,-1.01295 2.43712,-2.25099 l 2.20253,-2.25099 1.08825,1.64848 c 1.2391,1.87699 1.99002,2.3903 4.40003,3.00771 2.23854,0.57349 3.76057,0.39794 8.20781,-0.9467 5.23063,-1.58149 6.87529,-1.79026 9.57451,-1.21537 4.42279,0.94198 7.77772,3.25066 10.35708,7.1272 2.84439,4.27484 4.12758,7.86558 4.12732,11.54941 -1.9e-4,2.66215 -0.30194,3.04248 -0.89405,1.12685 z m -0.85474,-10.50902 c -1.1601,-0.81256 -1.17257,-1.02676 -1.09512,-18.80296 l 0.0738,-16.92633 0.75992,-1.45521 c 1.99413,-3.81864 5.53896,-9.31854 5.79138,-8.98549 0.0508,0.0671 0.0263,9.62263 -0.0544,21.23457 l -0.14686,21.11263 -2.14763,2.10456 c -1.1812,1.15751 -2.25603,2.10457 -2.38853,2.10457 -0.13249,0 -0.4891,-0.17386 -0.79247,-0.38634 z m -44.86499,-13.51035 c -4.13173,-4.77671 -4.96336,-6.15044 -4.96861,-8.2074 -0.004,-1.69923 1.44069,-6.13752 3.31281,-10.17508 1.88315,-4.06134 2.16582,-5.58426 1.5759,-8.49038 -0.24844,-1.22389 -0.56748,-2.4438 -0.70897,-2.71093 -0.1415,-0.26712 -0.19439,-0.54855 -0.11754,-0.6254 0.0769,-0.0768 1.16428,0.23101 2.41651,0.68412 1.25224,0.45311 2.53847,0.81761 2.85828,0.81 0.31982,-0.008 1.41492,-0.3517 2.43357,-0.76462 l 1.85208,-0.75077 0.13229,4.79951 0.13229,4.79951 1.7709,3.70417 c 2.79967,5.85604 3.20221,6.94754 3.22002,8.73125 0.01,0.98667 -0.14619,1.88791 -0.41228,2.38125 -0.23548,0.43656 -2.27698,2.83186 -4.53668,5.32289 -3.53339,3.89512 -4.54486,4.86357 -5.0796,4.86357 -0.0548,0 -1.80121,-1.96726 -3.88097,-4.37169 z m 5.33565,-26.51842 c 0.013,-0.38632 -1.72796,-0.46309 -1.96073,-0.0865 -0.083,0.13435 0.10826,0.68363 0.42509,1.22063 l 0.57607,0.97636 0.47424,-0.8899 c 0.26083,-0.48944 0.47923,-1.03873 0.48533,-1.22063 z m -19.299101,16.27731 c -0.76919,-0.40669 -1.20509,-1.45272 -0.97966,-2.35091 0.0875,-0.34862 0.71508,-1.38205 1.39463,-2.29651 0.67955,-0.91446 1.159981,-1.73822 1.067631,-1.83056 -0.0923,-0.0924 -1.240041,0.88123 -2.550431,2.16352 l -2.38252,2.33142 -1.53732,-0.1394 c -1.68016,-0.15235 -3.58237,-0.98178 -3.98744,-1.73866 -0.33158,-0.61957 0.22351,-1.48476 1.89856,-2.9592 0.68945,-0.60688 1.1949,-1.19831 1.12323,-1.31428 -0.0717,-0.11598 -1.17351,0.31682 -2.44851,0.96176 -3.29296,1.66571 -3.94798,1.72135 -5.73942,0.48754 -2.29231,-1.57878 -2.33427,-1.48759 1.70144,-3.6974 2.38305,-1.30487 2.83299,-1.62848 2.59504,-1.86643 -0.13166,-0.13166 -3.52251,0.65699 -6.44749,1.49956 -1.65381,0.4764 -2.34098,0.16387 -3.54813,-1.61373 -1.07589,-1.58432 -1.34319,-2.59186 -0.73536,-2.77174 0.1819,-0.0538 1.72971,-0.41641 3.43958,-0.80574 4.45576,-1.01454 4.22156,-1.25454 -1.73971,-1.78283 l -3.65794,-0.32417 -1.24369,-1.85983 c -0.68403,-1.0229 -1.40713,-2.2546 -1.60688,-2.73711 -0.64537,-1.55889 -0.29535,-1.63486 4.83398,-1.04926 2.45141,0.27987 4.52508,0.44089 4.60816,0.35781 0.27454,-0.27454 -0.17463,-0.49031 -1.45306,-0.69801 -5.02738,-0.81676 -7.70752,-1.40263 -8.41404,-1.83929 -1.07312,-0.66322 -3.3012,-3.29918 -5.02774,-5.94813 -1.62819,-2.49805 -1.91789,-3.24453 -1.34455,-3.46454 0.22165,-0.0851 2.6935,0.63423 5.49301,1.59842 2.79951,0.96418 5.27551,1.70922 5.50223,1.65563 0.54294,-0.12833 -6.9327,-3.62184 -7.75714,-3.62506 -0.50597,-0.002 -3.49446,-1.67953 -4.58726,-2.575 -0.83891,-0.68742 -1.43845,-1.54147 -2.16954,-3.09052 -1.13247,-2.39948 -1.46048,-3.49365 -1.11192,-3.70907 0.31451,-0.19438 4.82381,1.50646 9.55578,3.60431 4.97725,2.20659 5.54418,2.43005 5.71974,2.25449 0.14436,-0.14436 -0.80918,-0.66329 -10.45445,-5.68951 -5.20588,-2.71281 -7.18196,-4.21114 -8.72002,-6.61177 -0.92083,-1.43725 -2.42027,-5.7073 -2.42027,-6.892357 V 98.92206 l 1.5761,0.640428 c 0.86686,0.352236 5.36147,2.621232 9.98803,5.042222 11.93125,6.24339 15.65175,8.09478 16.02018,7.97197 0.18405,-0.0614 -0.29998,-0.72548 -1.12957,-1.5499 -1.04968,-1.04313 -2.29411,-1.86778 -4.49432,-2.97827 -3.46043,-1.74655 -3.71722,-1.92984 -3.05818,-2.18274 1.24357,-0.4772 8.11266,3.27139 9.75292,5.32235 1.28119,1.60198 4.14357,5.9488 4.87839,7.40833 0.65619,1.30335 4.66318,10.75862 5.53238,13.0547 1.26704,3.34704 2.21148,4.23441 5.712121,5.36693 3.24492,1.0498 5.52657,2.35928 7.51706,4.31418 1.2286,1.20663 1.71322,1.90118 1.94934,2.79372 0.59399,2.24528 0.30998,3.03517 -2.81303,7.82356 -4.00076,6.13424 -4.13022,6.27046 -6.07368,6.39127 -0.96732,0.0601 -1.821221,-0.0357 -2.226261,-0.24986 z m 32.334091,-1.26346 c -0.58173,-0.35468 -1.87148,-2.06225 -3.92229,-5.19293 -1.68056,-2.56547 -3.16577,-4.95435 -3.30046,-5.30863 -0.64005,-1.68346 -0.0669,-3.94475 1.40455,-5.54104 1.79556,-1.94795 4.57058,-3.61802 7.63953,-4.59763 1.51226,-0.48272 3.02419,-1.0546 3.35985,-1.27084 0.90523,-0.58317 2.05892,-2.39249 2.82743,-4.43421 0.37414,-0.994 1.17008,-2.94384 1.76876,-4.33297 0.59869,-1.38914 1.44165,-3.35914 1.87326,-4.37779 2.14136,-5.05387 5.12285,-10.00384 7.49682,-12.44647 0.81548,-0.83907 2.13367,-1.65321 4.71544,-2.91235 3.32725,-1.62271 4.33652,-1.9263 4.46833,-1.34408 0.0287,0.12674 -1.3711,0.96018 -3.11065,1.85209 -1.91966,0.98425 -3.66159,2.0965 -4.43177,2.82977 -1.2399,1.18048 -1.58179,1.83459 -0.95891,1.83459 0.17051,0 5.67716,-2.79254 12.23698,-6.20563 6.55981,-3.41309 12.61155,-6.507212 13.44829,-6.875829 l 1.52136,-0.670213 v 0.879008 c 0,0.483454 -0.24819,1.642814 -0.55153,2.576354 -1.70786,5.25601 -3.77157,7.44465 -10.05659,10.66535 -7.68903,3.94016 -10.69116,5.5175 -10.9422,5.74908 -0.62669,0.57813 0.79787,0.12401 3.71169,-1.1832 6.08537,-2.73005 11.27741,-4.72281 11.56242,-4.4378 0.36886,0.36886 -0.99216,3.89454 -2.08444,5.39968 -1.16733,1.60855 -3.39883,3.00288 -7.11539,4.44597 -1.7474,0.6785 -4.01053,1.63477 -5.02917,2.12506 -2.69578,1.2975 -1.43291,1.27626 2.25196,-0.0379 8.20568,-2.9264 8.21525,-2.92703 7.00634,-0.45812 -0.95557,1.95153 -4.40594,6.38475 -5.69731,7.32022 -0.98993,0.7171 -3.41653,1.30748 -9.31568,2.26646 -1.495,0.24304 -1.25779,0.76652 0.26458,0.5839 5.12612,-0.61492 8.03418,-0.78647 8.32929,-0.49135 0.37342,0.37342 -0.64875,2.6331 -2.06693,4.5693 l -0.89157,1.21724 -2.25456,0.1733 c -3.13998,0.24136 -6.22508,0.72366 -6.22508,0.97318 0,0.11513 1.33945,0.52432 2.97656,0.9093 4.01785,0.94482 3.90261,0.90072 3.90261,1.4934 0,0.71106 -1.68683,3.30199 -2.39732,3.68223 -0.71373,0.38198 -1.43632,0.27611 -5.36712,-0.78637 -4.51966,-1.22165 -4.48505,-0.83678 0.15319,1.70381 1.32835,0.72761 2.45945,1.46072 2.51355,1.62915 0.0541,0.16842 -0.5821,0.7935 -1.41379,1.38906 -1.99512,1.42868 -2.63018,1.40617 -5.77458,-0.20467 -1.38228,-0.70812 -2.57687,-1.22387 -2.65463,-1.1461 -0.0778,0.0778 0.63269,0.94323 1.57881,1.92324 0.94612,0.98001 1.72022,1.90641 1.72022,2.05868 0,0.39543 -1.55994,1.50009 -2.61917,1.85473 -0.49466,0.16562 -1.4448,0.30112 -2.11143,0.30112 -1.16958,0 -1.29309,-0.0807 -3.52411,-2.30134 -1.27163,-1.26574 -2.39048,-2.22291 -2.48633,-2.12706 -0.0959,0.0958 0.38171,0.92248 1.06126,1.83694 0.67955,0.91446 1.30713,1.94789 1.39463,2.29651 0.22629,0.9016 -0.21246,1.94777 -0.97966,2.33595 -1.00514,0.50857 -2.91125,0.41574 -3.90504,-0.19017 z m -19.77078,-20.54456 c -2.32833,-1.25021 -4.32282,-2.35398 -4.43219,-2.45282 -0.19892,-0.17977 -2.31468,-6.22945 -2.31468,-6.61848 0,-0.17179 6.76187,2.15487 7.0132,2.41314 0.26297,0.27022 4.09762,8.55444 4.03859,8.72477 -0.0394,0.11357 -1.97658,-0.8164 -4.30492,-2.06661 z m 6.74688,2.17985 c 0,-0.50778 4.32071,-8.91271 4.67766,-9.09932 0.65122,-0.34043 6.04829,-2.16805 6.40239,-2.16805 0.29181,0 -0.84632,3.47854 -1.96791,6.01466 l -0.62978,1.42404 -3.249,1.54182 c -3.50081,1.66133 -5.23336,2.4184 -5.23336,2.28685 z m -3.40257,-4.88871 -2.16805,-4.46927 1.23902,-2.87292 c 0.68147,-1.58011 1.61716,-3.75921 2.07931,-4.84246 0.90553,-2.12244 1.30602,-2.51027 1.60136,-1.55076 0.10324,0.33543 1.00631,2.43917 2.00682,4.67497 1.00051,2.2358 1.81911,4.29103 1.81911,4.56717 0,0.44639 -4.10768,8.96253 -4.32299,8.96253 -0.0476,0 -1.06215,-2.01117 -2.25458,-4.46926 z M 84.100879,122.63135 c -0.20735,-0.32742 -0.45596,-0.97445 -0.55247,-1.43784 -0.23326,-1.11998 -0.0679,-1.21633 6.07665,-3.54128 8.065871,-3.05192 11.418181,-4.33534 15.081251,-5.77381 1.89177,-0.74289 3.76144,-1.35094 4.15482,-1.35123 0.39338,-2.7e-4 3.90573,1.20396 7.80521,2.67612 3.89948,1.47215 8.75685,3.30227 10.79414,4.06693 5.6516,2.12121 5.68935,2.14004 5.68273,2.83407 -0.003,0.33484 -0.2355,1.11483 -0.51623,1.73329 -0.38548,0.84923 -0.65931,1.12434 -1.11867,1.12393 -0.72548,-5.3e-4 -3.89905,-1.18138 -18.79157,-6.99134 -1.88088,-0.73377 -3.52777,-1.21019 -4.18341,-1.21019 -0.68998,0 -2.53572,0.56581 -5.1,1.56342 -2.21028,0.85988 -5.44744,2.10268 -7.19369,2.76178 -1.74625,0.65909 -4.878771,1.86055 -6.961161,2.66991 -2.08239,0.80935 -4.01441,1.47155 -4.29338,1.47155 -0.27897,0 -0.67687,-0.26789 -0.88422,-0.59531 z"
       style="fill:#0000ff;stroke-width:1;fill-opacity:1" />
  </g>
</svg>
