<?xml version="1.0" encoding="UTF-8" standalone="no"?>
<svg
   xmlns:dc="http://purl.org/dc/elements/1.1/"
   xmlns:cc="http://creativecommons.org/ns#"
   xmlns:rdf="http://www.w3.org/1999/02/22-rdf-syntax-ns#"
   xmlns:svg="http://www.w3.org/2000/svg"
   xmlns="http://www.w3.org/2000/svg"
   id="svg8"
   version="1.1"
   viewBox="0 0 210 297"
   height="297mm"
   width="210mm">
  <defs
     id="defs2" />
  <metadata
     id="metadata5">
    <rdf:RDF>
      <cc:Work
         rdf:about="">
        <dc:format>image/svg+xml</dc:format>
        <dc:type
           rdf:resource="http://purl.org/dc/dcmitype/StillImage" />
        <dc:title></dc:title>
      </cc:Work>
    </rdf:RDF>
  </metadata>
  <g
     id="layer1">
    <path
       id="path826"
       d="m 105.70104,210.7693 c -0.43656,-0.2353 -1.4486,-0.99112 -2.24896,-1.6796 -0.80036,-0.68848 -2.11521,-1.66974 -2.92189,-2.18058 -0.806668,-0.51084 -1.624918,-1.11947 -1.818328,-1.35252 -0.19341,-0.23304 -0.52108,-0.42372 -0.72816,-0.42372 -0.70539,0 -1.67509,-1.25254 -1.68059,-2.17079 -0.006,-1.0631 -1.45094,-5.25526 -1.91171,-5.5478 -0.18262,-0.11595 -0.77851,-0.21263 -1.32422,-0.21486 -1.11098,-0.005 -2.05052,-0.73377 -2.05052,-1.59155 0,-0.3602 0.17639,-0.52917 0.55243,-0.52917 0.50093,0 0.53519,-0.10199 0.36752,-1.09438 l -0.18489,-1.09438 0.75695,0.21231 c 1.18286,0.33177 1.93969,0.22402 2.56717,-0.36546 0.31804,-0.29879 1.02311,-0.72912 1.56683,-0.9563 0.80365,-0.33579 0.98858,-0.54986 0.98858,-1.14438 0,-0.85352 0.54652,-1.7065 1.79665,-2.80414 l 0.895568,-0.78631 -1.218108,-0.30929 c -1.45701,-0.36995 -1.64642,-0.52396 -1.24267,-1.01045 0.16877,-0.20335 0.23253,-0.56341 0.14169,-0.80014 -0.13217,-0.34443 0.0123,-0.43119 0.72304,-0.43431 1.437098,-0.006 2.166998,-0.53429 2.607988,-1.8865 0.21828,-0.66932 0.55225,-1.40107 0.74215,-1.62613 0.41031,-0.48628 3.20306,-2.16138 5.60785,-3.36362 0.94589,-0.47289 2.05962,-1.09977 2.47496,-1.39308 0.74633,-0.52706 0.75305,-0.55584 0.57458,-2.46035 -0.17592,-1.8773 -0.16261,-1.93883 0.51538,-2.38306 1.10241,-0.72233 0.83582,-1.72871 -0.58835,-2.22103 -0.61847,-0.2138 -1.12448,-0.46551 -1.12448,-0.55937 0,-0.0939 0.54828,-0.38004 1.2184,-0.63596 1.10731,-0.42289 1.55959,-0.43667 4.96093,-0.15117 3.33076,0.27957 3.85477,0.39112 4.76256,1.0138 2.51781,1.72705 4.73128,5.21915 5.25829,8.29579 0.35561,2.07607 0.18279,2.84458 -0.92432,4.11016 -1.26285,1.44361 -4.89749,4.05817 -5.64148,4.05817 -0.80242,0 -0.81966,-0.3983 -0.0394,-0.90956 0.85618,-0.56099 2.65042,-2.98903 2.44929,-3.31447 -0.32957,-0.53325 -0.97037,-0.25899 -2.29642,0.98289 -0.73808,0.69122 -2.07243,1.67887 -2.96523,2.19478 -1.45184,0.83895 -1.65285,1.05946 -1.90343,2.08802 -0.17057,0.70017 -0.55868,1.3721 -0.99219,1.71776 -0.54316,0.4331 -0.71202,0.8007 -0.71202,1.55 0,0.915 0.0543,0.98225 0.79375,0.98225 0.87593,0 0.98948,0.33927 0.48448,1.44761 -0.26704,0.58609 -0.23092,0.75175 0.26459,1.21338 0.31561,0.29404 0.57384,0.76811 0.57384,1.05348 0,0.56434 0.17389,0.62165 1.62566,0.53583 1.22498,-0.0724 1.5059,0.37499 0.74441,1.18557 -1.29895,1.38266 -3.8749,1.5037 -6.25205,0.29377 -1.52956,-0.77853 -2.30009,-1.55895 -2.85834,-2.89504 -0.36276,-0.8682 -0.48168,-0.95926 -0.93555,-0.71635 -0.58107,0.31098 -0.62932,0.48985 -1.02406,3.79662 -0.33628,2.81707 -0.0319,3.85414 1.3369,4.55529 0.48441,0.24812 1.27184,0.79181 1.74985,1.20819 0.98494,0.85797 1.53357,0.93756 2.37931,0.34519 0.62512,-0.43785 0.76831,-1.40274 0.32978,-2.22215 -0.33975,-0.63483 0.43845,-0.85926 1.73658,-0.50083 0.75894,0.20955 1.03167,0.4809 1.4394,1.43211 0.43416,1.01286 0.61091,1.17358 1.2906,1.17358 0.43314,0 0.86112,0.11906 0.95106,0.26458 0.0899,0.14552 0.51293,0.26458 0.93999,0.26458 0.60493,0 0.95015,-0.23975 1.56258,-1.08518 1.14002,-1.57375 1.24898,-2.0982 0.55301,-2.66176 -0.84129,-0.68124 -0.60555,-1.429 0.42561,-1.35 0.71958,0.0551 0.88844,-0.0763 1.44449,-1.12448 1.04807,-1.97562 1.12527,-1.77859 1.03815,2.64955 -0.062,3.14977 -0.38922,4.66482 -1.16112,5.37549 -0.80569,0.74179 -6.24943,3.17049 -7.89967,3.5244 -1.63566,0.35079 -4.65323,0.14629 -6.27269,-0.42509 -1.49277,-0.52668 -1.87515,-0.51076 -1.87515,0.078 0,0.69856 1.10772,1.63362 1.93528,1.63362 0.83292,0 0.96922,0.67135 0.24754,1.21918 -0.62054,0.47106 -1.61363,0.44 -2.57969,-0.0807 z M 83.104402,197.32591 c -3.85046,-1.87406 -5.73217,-3.05548 -10.2571,-6.43988 -7.33494,-5.48613 -11.23571,-10.18995 -15.04121,-18.13774 -2.61208,-5.45534 -6.65365,-15.90088 -6.42164,-16.59691 0.0478,-0.14332 1.00492,1.08914 2.12698,2.73881 2.24119,3.29499 4.93075,6.67411 5.14313,6.46174 0.0745,-0.0745 -0.11521,-1.20289 -0.42151,-2.50759 -0.88806,-3.78263 -1.60638,-8.96908 -1.60942,-11.62031 -0.003,-2.42561 0.003,-2.4474 0.64935,-2.4474 0.80249,0 1.19993,0.68255 1.19993,2.06069 0,1.81619 1.05025,8.02017 1.88874,11.15705 1.34418,5.02872 4.1385,11.0754 6.96445,15.07048 4.42196,6.25138 8.87728,10.51491 15.40222,14.73918 l 4.1873,2.71086 -0.0804,0.96616 c -0.10401,1.24924 -0.63641,2.83933 -0.98929,2.95465 -0.15179,0.0496 -1.38546,-0.4498 -2.74149,-1.10979 z m 53.573038,0.69582 c -0.0789,-0.12759 -0.31444,-0.96527 -0.52352,-1.86151 -0.28888,-1.23833 -0.30585,-1.69154 -0.0707,-1.88782 0.17021,-0.14206 1.76532,-1.17961 3.54471,-2.30567 4.79332,-3.03341 6.22825,-4.14222 9.32637,-7.20677 4.19841,-4.15289 7.53088,-8.75365 10.06141,-13.89062 2.98782,-6.06526 4.20781,-10.35699 5.24485,-18.45041 0.46081,-3.59637 0.74286,-4.20361 1.76952,-3.80964 0.42833,0.16436 0.45716,0.44862 0.30618,3.01867 -0.16638,2.83213 -1.16005,9.11718 -1.90843,12.07095 -0.2175,0.85845 -0.34424,1.61203 -0.28165,1.67462 0.20489,0.20489 3.06181,-3.43187 5.33816,-6.79528 1.22662,-1.81238 2.23022,-3.1587 2.23022,-2.9918 0,0.36059 -2.20466,6.61863 -3.51983,9.99122 -2.00971,5.15363 -4.67105,10.48553 -6.95333,13.93076 -3.9914,6.02522 -12.61565,13.22723 -20.67467,17.26518 -2.94014,1.47315 -3.61616,1.69009 -3.88931,1.24812 z M 106.62708,174.1918 c 0,-0.11687 0.24401,-0.76412 0.54225,-1.43833 0.36094,-0.81597 0.51576,-1.64553 0.46302,-2.48103 -0.0757,-1.20006 -0.0502,-1.25192 0.58223,-1.18086 0.96306,0.1082 1.6068,0.88478 1.77539,2.14174 0.15509,1.15625 -0.2363,1.87365 -1.34629,2.4677 -0.79763,0.42688 -2.0166,0.72354 -2.0166,0.49078 z m 4.1558,-7.81564 c -0.55197,-0.20999 -1.32587,-0.61087 -1.71979,-0.89084 -1.62966,-1.15828 -3.62386,-1.16146 -5.17854,-0.008 -1.16965,0.86759 -2.57369,0.82647 -3.54471,-0.10382 -0.575508,-0.5514 -1.015008,-0.72161 -1.863178,-0.72161 -0.79007,0 -1.11,-0.10988 -1.11,-0.38126 0,-0.72393 -0.56346,-0.7247 -1.65512,-0.002 -0.60248,0.3987 -1.59713,0.78146 -2.21033,0.85058 -1.07039,0.12065 -1.18771,0.0573 -2.93809,-1.58665 -1.28036,-1.20251 -2.10653,-1.76547 -2.7749,-1.89086 -1.15522,-0.21672 -1.46409,-0.55451 -1.57859,-1.72642 -0.0916,-0.93778 -0.39458,-1.21457 -1.60911,-1.47011 -0.94961,-0.1998 -0.97695,-1.14442 -0.0597,-2.0617 0.80547,-0.80547 1.7309,-1.01727 2.96088,-0.67766 1.75221,0.48381 2.18431,-0.24465 0.88403,-1.49039 -0.73074,-0.7001 -0.90782,-0.74341 -2.86845,-0.70156 -2.61392,0.0558 -3.24679,-0.18441 -4.19469,-1.59217 -0.41634,-0.61833 -1.5257,-1.72763 -2.46524,-2.46511 -1.68283,-1.32092 -1.73501,-1.34058 -3.50573,-1.32063 -1.12254,0.0127 -1.79558,-0.0867 -1.79243,-0.26458 0.003,-0.15666 0.91221,-0.6847 2.02096,-1.17341 1.6387,-0.72231 2.19473,-0.8521 2.97152,-0.69361 0.52558,0.10723 1.37232,0.20943 1.88164,0.22711 0.88879,0.0309 0.92939,-0.009 1.00926,-0.9785 0.0458,-0.55585 -0.0482,-1.16897 -0.20877,-1.36247 -0.1606,-0.19351 -1.05931,-0.55953 -1.99714,-0.81339 -2.43096,-0.65803 -5.45364,-0.42619 -7.48279,0.57393 -1.65895,0.81765 -2.07233,0.823 -3.59439,0.0465 -0.79965,-0.40795 -1.16655,-0.46533 -1.62881,-0.25471 -0.7254,0.33052 -0.91403,0.17311 -0.91403,-0.76278 0,-0.81042 -0.34253,-1.16216 -1.37056,-1.40742 -0.99279,-0.23674 -1.53986,-0.86726 -1.53986,-1.77466 0,-0.42617 -0.1136,-0.77485 -0.25246,-0.77485 -0.34081,0 -2.12879,-2.36532 -2.12879,-2.81618 0,-0.42425 0.8325,-0.47883 1.23066,-0.0807 0.36808,0.36808 2.91723,1.03766 3.96556,1.04162 1.12759,0.004 2.07123,-0.77782 1.83532,-1.5211 -0.0987,-0.31095 -0.44124,-0.65735 -0.76121,-0.76979 -0.31998,-0.11244 -2.71241,-0.18218 -5.31651,-0.15498 -4.28037,0.0447 -4.85799,-0.004 -6.01927,-0.50314 -1.49589,-0.64351 -1.64602,-1.0166 -0.40907,-1.0166 0.48151,0 1.10658,-0.17752 1.38906,-0.39449 0.49579,-0.38082 0.47691,-0.42757 -0.54474,-1.3487 -3.22777,-2.9102 -3.34175,-3.03688 -3.25851,-3.6216 0.091,-0.63929 0.28099,-0.65427 1.97364,-0.15557 1.0287,0.30308 1.14673,0.28065 1.91189,-0.36319 0.44853,-0.37741 1.16732,-0.76347 1.59732,-0.85791 0.88268,-0.19388 1.47807,-0.77077 1.2224,-1.18445 -0.0939,-0.15189 -0.61014,-0.27793 -1.14726,-0.28007 -1.24162,-0.005 -2.27098,-0.5215 -2.37813,-1.19337 -0.18389,-1.15313 -0.69523,-2.02228 -1.40599,-2.38982 -1.45913,-0.75455 -1.571,-1.89557 -0.33124,-3.37852 0.79647,-0.95272 0.78742,-1.33394 -0.0446,-1.87913 -0.80501,-0.52746 -0.63339,-0.94484 0.38853,-0.94484 0.83151,0 1.4227,-0.53417 1.20862,-1.09205 -0.0771,-0.20095 -0.74108,-0.70313 -1.47548,-1.11596 -0.78221,-0.4397 -1.45334,-1.04199 -1.62031,-1.45411 -0.15676,-0.38693 -0.38803,-2.25132 -0.51394,-4.14309 -0.1259,-1.89177 -0.3014,-3.95261 -0.39,-4.57964 -0.13048,-0.92348 -0.0681,-1.20802 0.3283,-1.49789 0.56906,-0.41611 0.89102,-0.29431 0.89467,0.33846 0.004,0.76012 1.29885,3.27679 1.62885,3.16679 0.17231,-0.0574 0.32109,-0.62792 0.33242,-1.27464 0.0156,-0.88923 0.13067,-1.19215 0.47871,-1.26003 0.33787,-0.0659 0.63689,0.315 1.13867,1.45046 0.95894,2.16992 2.90534,5.42837 3.67385,6.15034 l 0.64892,0.60963 -0.35438,-1.15487 c -0.60437,-1.96956 -0.92555,-2.65475 -1.64379,-3.50676 -0.38162,-0.45271 -1.01739,-1.53748 -1.41282,-2.4106 -0.39542,-0.87313 -1.09187,-1.97337 -1.54765,-2.44499 -0.87729,-0.90777 -1.00625,-1.59693 -0.54592,-2.91744 0.35733,-1.02503 -0.12875,-2.0592 -1.49857,-3.18833 -1.55776,-1.28403 -0.53696,-1.87112 1.47168,-0.84639 0.56571,0.2886 1.10477,0.76485 1.19792,1.05834 0.3098,0.9761 0.66286,0.55117 0.66286,-0.79782 0,-0.73227 0.16241,-1.7201 0.3609,-2.19516 0.40238,-0.96303 1.9242,-2.37392 2.38439,-2.21058 0.33209,0.11788 0.32012,0.30965 -0.12974,2.07946 -0.29985,1.17966 -0.28097,1.27689 0.40658,2.09399 0.49128,0.58386 0.67063,1.03273 0.56287,1.40874 -0.50593,1.76535 -0.48072,1.89315 0.62556,3.17136 1.20255,1.38944 1.24029,1.36026 1.43237,-1.10762 0.15227,-1.95645 0.69911,-2.92582 1.77148,-3.1403 0.97062,-0.19412 1.20289,-0.48952 1.40194,-1.78297 0.0872,-0.56657 0.42041,-1.30889 0.74049,-1.6496 0.55354,-0.58921 2.20896,-1.1208 2.52041,-0.80935 0.27196,0.27197 -0.45956,1.99138 -1.27976,3.00799 -2.68031,3.32221 -3.1111,7.3198 -1.36338,12.65192 0.87225,2.66115 1.49136,3.89299 3.46421,6.89276 5.58105,8.48614 16.66911,18.1567 30.776008,26.84161 1.77277,1.09141 4.35934,2.72852 5.74794,3.63802 1.3886,0.90951 2.61681,1.65365 2.72936,1.65365 0.51411,0 0.50561,-0.66866 -0.0242,-1.90014 -0.78582,-1.82667 -0.80861,-3.81033 -0.0577,-5.02525 0.3203,-0.51825 0.58236,-1.06981 0.58236,-1.22569 0,-0.15587 -0.49617,-0.85619 -1.1026,-1.55627 -1.57414,-1.81722 -2.25474,-3.50573 -3.01712,-7.48523 -0.76701,-4.00364 -0.69509,-4.32546 1.18054,-5.28233 1.1324,-0.57771 1.35168,-0.94982 1.35168,-2.29377 0,-1.64449 0.61771,-2.62157 2.26638,-3.58493 2.47768,-1.44777 3.27396,-3.87058 2.3897,-7.27104 -0.48929,-1.8816 -0.54828,-4.02702 -0.13562,-4.93272 0.28273,-0.62052 1.50215,-1.51138 2.0688,-1.51138 0.37371,0 0.36896,0.66986 -0.0122,1.72399 -0.33838,0.93578 -0.14531,2.42273 0.41388,3.18747 0.35168,0.48094 0.39426,0.48317 0.87737,0.046 0.27926,-0.25272 0.63024,-0.4595 0.77995,-0.4595 0.25889,0 0.61217,2.33887 0.61217,4.05279 0,0.4401 0.35607,1.53107 0.79126,2.42439 l 0.79126,1.6242 -0.27511,3.55608 c -0.38406,4.96419 -0.37416,5.52876 0.10539,6.00831 0.38033,0.38033 0.44171,0.34861 0.6888,-0.35589 0.77474,-2.20897 1.60257,-2.87599 1.60257,-1.29125 0,0.53982 0.24571,2.02808 0.54603,3.30725 l 0.54602,2.32577 -0.5719,1.32941 c -0.76896,1.7875 -3.34891,4.27102 -4.43686,4.27102 -0.42955,0 -0.93988,-0.19144 -1.13406,-0.42542 -0.30386,-0.36613 -0.25306,-0.49826 0.36448,-0.94811 0.85897,-0.62571 0.92633,-1.75381 0.22381,-3.74807 -0.51518,-1.46248 -0.90594,-1.31055 -1.17803,0.45803 -0.19099,1.24141 -0.25772,1.31905 -0.9459,1.10064 -0.5614,-0.17819 -1.08229,-1.5311 -1.08503,-2.81818 -7.9e-4,-0.38091 0.3435,-1.75013 0.76514,-3.04271 0.92987,-2.85061 1.20816,-4.42684 0.8839,-5.00626 -0.20461,-0.36562 -0.29803,-0.303 -0.58636,0.39311 -0.39568,0.95524 -1.01858,1.36854 -1.76747,1.1727 -0.75343,-0.19703 -1.03629,0.29534 -1.51663,2.63996 -1.15254,5.62572 0.23515,9.33983 4.29887,11.50576 3.08125,1.64229 3.74044,3.33915 2.58637,6.65769 -1.01357,2.91453 -0.8405,2.97544 2.43874,0.85825 1.29601,-0.83674 3.59117,-2.29526 5.10037,-3.24114 10.633,-6.66422 19.06277,-13.18868 24.81702,-19.20786 6.95134,-7.27138 10.02252,-12.47445 11.14073,-18.8742 0.53541,-3.06424 -0.3227,-6.41228 -2.2193,-8.65893 -0.71036,-0.84146 -1.6131,-2.96863 -1.36509,-3.21663 0.0734,-0.0734 0.61612,0.0112 1.2061,0.18797 1.18049,0.35369 1.94281,1.32559 2.2267,2.8389 0.12792,0.68186 0.37104,0.98228 1.01579,1.25519 1.44655,0.6123 1.85767,1.30729 2.02197,3.41819 0.0817,1.04963 0.26761,1.90168 0.41313,1.89345 0.14552,-0.008 0.64376,-0.57558 1.1072,-1.26079 0.67175,-0.99322 0.81321,-1.42698 0.69763,-2.13921 -0.17153,-1.05704 0.31006,-2.69468 0.85381,-2.90334 0.51578,-0.19792 0.48358,-0.78045 -0.10837,-1.96047 -0.82897,-1.6525 -0.15216,-2.23443 1.06478,-0.9155 0.89395,0.96887 1.54433,2.71952 1.54433,4.15693 0,1.53031 0.36628,1.70972 0.9696,0.47494 0.32292,-0.66088 0.69528,-1.02351 1.11144,-1.08239 1.12743,-0.15952 1.22923,0.35648 0.33629,1.70457 -0.92816,1.40126 -0.95761,1.55913 -0.45888,2.45912 0.45172,0.81513 0.28206,1.46255 -0.76947,2.93631 -2.26572,3.17549 -4.62856,7.81542 -4.62856,9.08916 0,0.4964 1.71503,-1.3746 2.60296,-2.83968 0.47817,-0.78897 1.13387,-2.19044 1.4571,-3.11438 0.71502,-2.04379 0.89034,-2.34135 1.37951,-2.34135 0.28574,0 0.38126,0.36457 0.38126,1.45521 0,1.0426 0.1009,1.45521 0.35587,1.45521 0.57627,0 1.24258,-0.92078 1.40916,-1.94733 0.18813,-1.15927 0.67772,-1.65888 1.11239,-1.13514 0.22264,0.26826 0.23231,1.39682 0.0369,4.30274 -0.14571,2.16651 -0.32673,4.3052 -0.40227,4.75265 -0.15182,0.89927 -1.1274,1.93737 -2.44586,2.60262 -0.91965,0.46403 -1.15522,1.30868 -0.44139,1.58261 0.23019,0.0883 0.8255,0.1606 1.32292,0.1606 1.10994,0 1.16299,0.38186 0.12743,0.91736 -1.12636,0.58246 -1.1533,0.76357 -0.2775,1.86562 1.14278,1.438 1.09252,2.61256 -0.14299,3.34152 -1.01731,0.60023 -1.44837,1.21338 -1.44837,2.06019 0,0.84233 -0.93259,1.60489 -1.96274,1.60489 -1.05412,0 -1.74143,0.22138 -1.74143,0.5609 0,0.13183 0.64989,0.5474 1.44419,0.92349 0.7943,0.37608 1.58279,0.85079 1.75219,1.05491 0.43829,0.5281 1.00624,0.45794 2.30538,-0.28481 0.84986,-0.48588 1.16925,-0.56324 1.26757,-0.30702 0.27392,0.71382 -0.51605,1.94941 -2.35387,3.68167 -1.81535,1.71109 -1.87854,1.81043 -1.38833,2.18281 0.28248,0.21457 0.90756,0.39013 1.38907,0.39013 1.30294,0 1.06784,0.37057 -0.75374,1.18805 l -1.6292,0.73114 -2.73957,-0.32467 c -2.7472,-0.32558 -6.12023,-0.18308 -7.03275,0.29711 -0.62285,0.32777 -0.59224,1.46018 0.0487,1.80323 0.88369,0.47294 2.7229,0.30253 4.21086,-0.39015 0.77843,-0.36238 1.5821,-0.65887 1.78593,-0.65887 0.6054,0 0.42225,0.91817 -0.32067,1.60752 -0.3802,0.35279 -1.04671,1.26705 -1.48114,2.03169 -0.80075,1.40942 -1.85012,2.4462 -2.4759,2.4462 -0.18899,0 -0.38129,0.32742 -0.42734,0.72761 -0.0703,0.61118 -0.25306,0.76443 -1.14205,0.95779 -0.58209,0.1266 -1.50723,0.39449 -2.05588,0.59531 -1.36779,0.50065 -2.30685,0.4577 -2.95415,-0.13511 -1.12485,-1.03014 -4.84892,-1.37386 -7.6772,-0.70858 -1.76205,0.41447 -2.26173,0.89913 -2.26173,2.19373 0,1.16136 0.49059,1.32075 2.23752,0.72695 l 1.40323,-0.47697 2.28067,1.14572 c 1.25436,0.63014 2.28066,1.22778 2.28066,1.32809 0,0.1003 -0.57753,0.12688 -1.28339,0.059 -2.14813,-0.20641 -5.16096,1.48485 -6.54181,3.67225 -0.89938,1.42471 -1.81661,1.8184 -4.26635,1.83116 -1.88557,0.01 -2.14089,0.0768 -2.95862,0.77615 -1.38511,1.18458 -1.01464,1.60166 1.25376,1.41149 1.73924,-0.14582 1.88059,-0.11535 2.5444,0.54846 0.98442,0.98443 0.85472,2.11203 -0.25736,2.2375 -1.08034,0.12189 -1.48112,0.50884 -1.29502,1.25032 0.2002,0.79767 -0.91664,1.96742 -1.87843,1.96742 -0.4776,0 -1.23644,0.51889 -2.5151,1.71979 -2.17318,2.04104 -2.881,2.17612 -4.85218,0.92604 -1.47759,-0.93707 -1.67261,-0.9643 -1.89469,-0.26458 -0.13142,0.41408 -0.40032,0.52916 -1.23641,0.52916 -0.7537,0 -1.30005,0.19488 -1.85464,0.66154 -1.2599,1.06013 -1.87609,1.08497 -3.54535,0.1429 -2.0046,-1.13133 -2.95695,-1.10384 -5.36321,0.1548 -1.65534,0.86586 -2.22743,1.02726 -3.83646,1.08234 -1.16008,0.0397 -2.27893,-0.0828 -2.89459,-0.31705 z m 3.62089,-19.82846 c 0.37949,-1.73523 0.68998,-3.29868 0.68998,-3.47433 0,-0.17564 -0.39209,-0.61841 -0.87131,-0.98392 l -0.8713,-0.66458 -0.88813,0.72486 -0.88813,0.72486 0.55752,2.35571 c 0.30663,1.29564 0.63102,2.77243 0.72085,3.28175 0.0898,0.50932 0.22816,1.15379 0.30738,1.43216 0.22673,0.79663 0.47368,0.1219 1.24314,-3.39651 z m 34.57557,-36.1587 c -4.72709,-4.52252 -8.95898,-7.23301 -16.67441,-10.6798 -4.14203,-1.85041 -8.99541,-3.21355 -13.7716,-3.86796 -3.35326,-0.45944 -10.96714,-0.38664 -14.41979,0.13788 -11.080968,1.6834 -21.058118,6.47041 -29.065708,13.94564 -2.12499,1.98371 -2.68792,2.38356 -3.04271,2.16124 -1.28587,-0.80575 -0.197,-2.32479 4.32717,-6.03666 6.75552,-5.54259 13.46301,-9.00493 21.25645,-10.97234 5.046398,-1.27394 7.590318,-1.63399 12.610218,-1.78477 15.26047,-0.45836 28.92292,4.84281 40.28281,15.63013 1.23383,1.17165 1.91823,2.02666 1.91823,2.39645 0,0.61203 -0.45375,1.21192 -0.91281,1.20682 -0.1528,-0.002 -1.28133,-0.96318 -2.50785,-2.13663 z"
       style="fill:#ff0000;stroke-width:1;fill-opacity:1" />
  </g>
</svg>
