<?xml version="1.0" encoding="UTF-8" standalone="no"?>
<svg
   xmlns:dc="http://purl.org/dc/elements/1.1/"
   xmlns:cc="http://creativecommons.org/ns#"
   xmlns:rdf="http://www.w3.org/1999/02/22-rdf-syntax-ns#"
   xmlns:svg="http://www.w3.org/2000/svg"
   xmlns="http://www.w3.org/2000/svg"
   id="svg8"
   version="1.1"
   viewBox="0 0 210 297"
   height="297mm"
   width="210mm">
  <defs
     id="defs2" />
  <metadata
     id="metadata5">
    <rdf:RDF>
      <cc:Work
         rdf:about="">
        <dc:format>image/svg+xml</dc:format>
        <dc:type
           rdf:resource="http://purl.org/dc/dcmitype/StillImage" />
        <dc:title></dc:title>
      </cc:Work>
    </rdf:RDF>
  </metadata>
  <g
     id="layer1">
    <path
       id="path892"
       d="m 130.57188,291.3107 c -2.77068,-0.67217 -14.24975,-4.62023 -19.45882,-6.69261 -6.08054,-2.41909 -8.16199,-3.60241 -7.47121,-4.24744 0.15605,-0.1457 11.43974,-3.64085 14.11719,-4.37282 0.25158,-0.0688 0.74231,0.29184 1.24018,0.91139 0.45313,0.56385 2.28062,2.5595 4.0611,4.43478 5.62842,5.9281 8.70219,9.38073 8.70219,9.77485 0,0.3864 -0.23355,0.42405 -1.19063,0.19185 z M 85.725015,278.23425 c -5.29747,-0.54486 -12.53097,-2.18728 -16.66575,-3.78415 -8.93615,-3.45115 -15.27273,-8.69291 -19.17707,-15.86376 -4.44841,-8.17007 -4.33581,-18.47344 0.29657,-27.13789 1.67698,-3.13663 3.18446,-5.18014 6.0036,-8.13835 5.31012,-5.5721 12.54024,-9.90934 21.538,-12.92033 6.04806,-2.02391 10.05429,-2.70863 22.424435,-3.83266 13.22832,-1.20201 17.40788,-2.04446 20.42705,-4.11741 1.45542,-0.99928 2.45941,-2.58674 2.45941,-3.88869 0,-1.93501 -1.69486,-4.78887 -4.67564,-7.87303 l -1.93355,-2.0006 2.31241,-2.51715 c 2.97208,-3.23525 4.17997,-4.81599 6.00614,-7.86012 2.921,-4.86916 4.03663,-7.57948 4.80123,-11.66418 0.23347,-1.24727 0.59954,-2.60675 0.81348,-3.02105 0.3512,-0.6801 0.48344,-0.73698 1.36111,-0.58542 3.90593,0.67447 11.32798,6.62956 14.7714,11.85186 2.2296,3.38142 3.38711,5.95898 4.34587,9.67741 2.76985,10.74256 0.28377,21.6684 -6.6733,29.32781 -2.84177,3.12867 -4.94642,4.68164 -9.09061,6.70776 -8.00972,3.91599 -13.0445,5.09413 -30.00358,7.02085 -4.45303,0.50591 -9.525165,1.17006 -11.271415,1.4759 -11.66947,2.04379 -19.11648,6.73589 -21.82084,13.74851 -3.91007,10.13915 4.05031,20.79712 19.27692,25.80947 4.54745,1.49693 8.57544,2.06378 14.582455,2.05214 5.8117,-0.0114 8.75186,-0.46337 12.57597,-1.93371 4.82608,-1.8556 7.89797,-4.09295 11.9637,-8.71355 1.49135,-1.69487 3.02393,-3.31047 3.40574,-3.59019 l 0.69419,-0.50863 -0.18028,0.64093 c -0.85978,3.05641 -4.33865,7.95782 -8.26371,11.64272 -5.77394,5.42071 -13.75895,8.63156 -24.62742,9.90291 -3.663495,0.42854 -11.935175,0.47741 -15.676515,0.0926 z m 16.073425,-9.3821 c -0.69364,-0.21331 -1.25677,-0.54766 -1.25677,-0.74623 0,-0.84656 4.83726,-6.70764 10.05417,-12.18216 1.52797,-1.60343 3.79016,-3.97407 5.02708,-5.26812 2.58984,-2.70944 9.29929,-8.94617 9.45583,-8.78964 0.18911,0.18912 -1.49923,5.68325 -3.00497,9.77863 -0.80984,2.20263 -2.30035,6.26697 -3.31225,9.03187 -1.01191,2.7649 -1.97896,5.30503 -2.149,5.64473 -0.72971,1.45774 -2.77245,2.28973 -6.5816,2.68062 -3.61984,0.37148 -6.72099,0.31507 -8.23249,-0.1497 z m -0.19416,-16.1793 c -0.45064,-0.5457 -1.24749,-1.94468 -1.770765,-3.10885 -1.10994,-2.46936 -3.72756,-8.09876 -6.43808,-13.84567 -1.05539,-2.23766 -1.80986,-4.15214 -1.68288,-4.2703 0.39973,-0.37206 5.08945,-1.35202 7.46913,-1.56074 3.734885,-0.32759 3.337205,-1.0585 3.700055,6.8005 0.48963,10.60521 0.39898,16.97725 -0.24153,16.97725 -0.11912,0 -0.58528,-0.44648 -1.03593,-0.99219 z m 3.34712,0.55121 c -0.4939,-0.4939 -0.0877,-19.23976 0.49535,-22.8593 l 0.15189,-0.94298 6.26891,-0.67014 c 3.44791,-0.36858 6.30101,-0.64636 6.34025,-0.61728 0.0392,0.0291 -1.7903,3.85059 -4.06563,8.49228 -2.27533,4.64169 -4.78288,9.92712 -5.57233,11.74538 -1.56955,3.61495 -2.97326,5.49723 -3.61844,4.85204 z M 71.043675,205.17908 c -5.28695,-5.25194 -10.5978,-9.07244 -16.70247,-12.01536 -12.13647,-5.85072 -22.98975,-7.02074 -37.55796,-4.04885 -3.73278,0.76148 -5.75007,0.81779 -6.38773,0.17831 -0.4111002,-0.41227 -0.4691402,-0.93627 -0.4396202,-3.96875 0.0335,-3.44057 0.1926302,-4.64148 4.0776002,-30.77024 0.15345,-1.03206 0.87794,-3.94909 1.60998,-6.48229 0.73204,-2.5332 1.67493,-5.81326 2.09531,-7.28902 0.71451,-2.5083 2.34218,-7.29084 4.26451,-12.53034 0.70124,-1.91127 2.73853,-6.51704 3.0313,-6.85292 0.0508,-0.0583 0.95752,0.55266 2.01486,1.35775 2.5962,1.9768 4.65815,3.2629 6.7003,4.17915 0.93743,0.42059 1.70442,0.90348 1.70442,1.07308 0,0.16961 -0.65539,2.83561 -1.45642,5.92446 -1.50877,5.81797 -3.47894,15.12685 -4.3693,20.64452 -0.92183,5.71265 -1.31541,9.95775 -1.49372,16.11101 l -0.17552,6.05684 1.0355,-0.19181 c 0.56953,-0.1055 2.90913,-0.83045 5.19911,-1.611 11.25886,-3.83761 20.00696,-4.23753 28.90931,-1.32157 2.7005,0.88455 8.05227,3.45623 10.22621,4.91399 3.75386,2.51721 7.72732,5.97565 10.88691,9.4758 3.64169,4.03422 9.11203,12.10684 10.28434,15.17667 0.4519,1.18336 0.45285,1.26247 0.018,1.49422 -0.87888,0.46836 -2.5977,0.81274 -6.08283,1.21872 -3.66681,0.42715 -6.29235,0.96827 -10.21829,2.10596 -1.28767,0.37316 -2.65532,0.65754 -3.03922,0.63196 -0.51005,-0.034 -1.62342,-0.96579 -4.13456,-3.46029 z m 43.134245,-3.40131 c 0.48879,-1.38536 3.88491,-7.37413 4.18344,-7.37714 0.12369,-0.001 0.62971,0.40255 1.12448,0.89733 0.76455,0.76454 0.89958,1.08386 0.89958,2.1272 0,1.28552 -0.65344,2.8757 -1.49406,3.63587 -0.80115,0.72448 -3.33469,1.79864 -4.24889,1.80142 l -0.84816,0.003 0.38361,-1.08727 z m -14.311895,-9.09692 c -5.07144,-2.55442 -12.78006,-11.08285 -16.88477,-18.68044 -2.02914,-3.75583 -2.59338,-5.69273 -2.74461,-9.42145 -0.15317,-3.77701 0.0996,-5.0709 2.10917,-10.79413 3.25108,-9.25924 3.61349,-14.22573 1.37472,-18.83903 -1.78545,-3.67916 -7.07659,-6.29697 -14.17465,-7.01296 -2.573,-0.25954 -4.36102,-0.23143 -10.82182,0.17011 -8.47351,0.52663 -11.72364,0.44537 -15.91773,-0.39798 -7.89954,-1.58845 -13.52037,-5.11415 -21.11909,-13.24707 -1.9528,-2.09009 -4.28768,-4.54051 -5.18861,-5.44539 -2.09577,-2.10494 -4.65941,-3.77873 -5.78764,-3.77873 -0.8902502,0 -2.3872102,0.99047 -3.5122602,2.3239 -1.03553,1.22735 -4.07505,5.84788 -6.28067004,9.54761 -2.73175996,4.58229 -3.00405996,4.87652 -4.29019996,4.63567 -3.38215,-0.63336 -9.5666998,-4.31996 -13.0446498,-7.77592 -2.74845,-2.73108 -3.74879,-5.02448 -2.89083,-6.62759 0.14935,-0.27907 2.38108,-2.26554 4.9594,-4.41438 6.5308398,-5.442982 11.7023898,-10.415142 11.7023898,-11.251202 0,-0.52193 -3.97984,1.22755 -12.1762298,5.35248 -3.42271,1.72252 -6.86486,3.341772 -7.64923,3.598322 l -1.42613,0.46647 -0.59892,-0.75111 c -0.73862,-0.926322 -1.8077,-4.138572 -2.20109,-6.613622 -1.00278,-6.30901 -1.40533,-8.49065 -1.74826,-9.47492 -0.2124,-0.60963 -0.38792,-1.6679 -0.39004,-2.35172 -0.003,-1.09918 0.0979,-1.32096 0.87431,-1.91311 1.9843,-1.51351 4.97459,-2.53414 14.0347,-4.79028 2.95184,-0.73507 4.5351998,-0.98801 6.3486498,-1.01422 l 2.416,-0.0349 0.23054,1.05833 c 0.41413,1.90115 0.76792,2.55221 1.73247,3.1882 1.3521,0.89154 5.09579,1.82267 11.66056,2.90022 11.1017402,1.82225 12.5744602,2.19804 14.9510802,3.81505 4.09749,2.78785 5.21172,3.49689 5.32197,3.38664 0.0669,-0.0668 -0.15005,-0.30238 -0.48202,-0.52339 -0.33196,-0.221 -1.55607,-1.25426 -2.72023,-2.29612 -1.16417,-1.04187 -2.62251,-2.19807 -3.24076,-2.56934 -1.44458,-0.86751 -4.67652,-1.75653 -9.98841,-2.74755 -7.6342602,-1.42431 -11.47633024,-2.48042 -13.7583302,-3.78193 l -1.05834,-0.60361 0.0226,-1.83929 c 0.0409,-3.33126 2.84238996,-10.62589 5.15494,-13.4225 1.63698,-1.97962 4.05544,-2.5332 7.1074,-1.62686 1.7442502,0.51798 14.0080802,5.43937 17.7205202,7.11111 7.43399,3.34758 8.16444,3.95762 10.46431,8.73931 4.89158,10.17016 5.92392,12.17949 7.47928,14.55756 5.08176,7.76981 12.54379,14.295502 21.43976,18.749512 3.88342,1.94434 6.13463,2.59689 9.47354,2.74606 3.73526,0.16688 5.9557,-0.36166 10.3069,-2.45339 2.98899,-1.43688 5.68615,-2.50602 6.32065,-2.50547 0.15912,1.4e-4 1.23754,1.19995 2.3965,2.66626 2.66398,3.37043 3.67158,4.275 5.541025,4.97445 4.82337,1.80466 10.20752,-0.7768 13.56329,-6.50299 0.36679,-0.62588 0.78181,-1.13797 0.92227,-1.13797 0.38127,0 5.78944,2.24496 7.55398,3.1357 0.84553,0.42682 2.58174,1.10167 3.85824,1.49967 2.09987,0.6547 2.59105,0.7108 5.15725,0.58896 3.42204,-0.16247 5.31707,-0.71761 9.7155,-2.84609 7.7057,-3.72894 15.47672,-10.433552 20.86583,-18.002442 2.07508,-2.91441 5.7861,-9.67154 6.38604,-11.62788 0.11156,-0.36381 0.90199,-2.12058 1.7565,-3.90394 2.36323,-4.93203 3.01589,-5.44038 11.62987,-9.05835 2.82407,-1.18614 6.92061,-2.94046 9.10342,-3.89849 8.33443,-3.65795 11.85773,-4.10629 14.04489,-1.78722 2.15725,2.28735 5.42916,10.7871 5.49787,14.28237 l 0.0364,1.85208 -1.71979,0.85371 c -2.42246,1.20251 -5.43178,1.99718 -14.20424,3.75091 -7.04713,1.40882 -7.76476,1.60329 -9.09264,2.46402 -1.18905,0.77074 -5.75501,4.54981 -6.73333,5.57291 -0.50825,0.53152 2.92714,-1.47718 4.92899,-2.88201 3.48507,-2.44572 4.63197,-2.79726 14.65018,-4.4905 8.16215,-1.37953 11.55318,-2.11377 12.89486,-2.79201 1.10485,-0.55852 1.93908,-1.92921 2.21168,-3.63388 l 0.17158,-1.07313 1.22449,0.13767 c 7.16606,0.80568 17.03184,3.37234 20.32468,5.28762 0.97184,0.56527 1.13059,0.7919 1.28744,1.83787 0.50964,3.39848 -1.54437,14.38054 -3.38021,18.0728 -0.85201,1.713582 -0.90427,1.762542 -1.79872,1.685172 -1.08624,-0.094 -4.18539,-1.523612 -8.59414,-3.964482 -5.01481,-2.77641 -8.47585,-4.39234 -11.17084,-5.21554 l -1.11667,-0.34109 0.42714,0.83165 c 0.64987,1.26535 4.96004,5.34493 8.73702,8.269592 6.64615,5.14638 8.01814,6.55628 8.01814,8.23969 0,2.9297 -5.76294,8.42469 -12.03854,11.47877 -2.73394,1.3305 -4.87791,1.84929 -5.50198,1.33135 -0.19249,-0.15975 -1.17642,-1.61488 -2.1865,-3.23363 -6.59473,-10.5686 -8.50321,-12.95314 -10.36342,-12.94852 -1.8508,0.005 -3.41041,1.22832 -8.50091,6.67005 -8.02027,8.57364 -12.48425,12.03264 -18.54882,14.37293 -5.01947,1.93699 -7.86067,2.17915 -20.16444,1.71868 -12.03965,-0.45059 -16.52687,-0.0131 -20.83309,2.03095 -4.47307,2.1233 -6.37804,5.59371 -6.36857,11.60203 0.005,3.47354 0.65078,6.3897 2.60576,11.7756 1.93772,5.33838 2.27162,7.09891 2.08088,10.97175 -0.35492,7.20667 -4.52441,14.61336 -12.87791,22.87638 -2.97684,2.94459 -4.55209,4.30013 -5.58619,4.80705 -3.11639,1.5277 -3.32684,1.24159 -1.22868,-1.6704 0.77119,-1.07031 1.82818,-2.54134 2.34886,-3.26895 1.03568,-1.44727 3.74583,-6.42524 5.76187,-10.58333 4.74715,-9.79101 4.96445,-15.68478 1.16971,-31.72535 -1.02763,-4.34383 -2.21854,-7.86816 -3.00343,-8.88819 -0.50389,-0.65487 -0.51303,-0.65619 -0.91636,-0.13229 -0.59303,0.7703 -3.07384,4.9564 -4.3904,7.40833 -2.43503,4.53493 -4.52581,7.34613 -5.37331,7.22477 -0.72213,-0.1034 -2.63219,-2.8691 -5.355035,-7.75394 -2.6894,-4.82481 -4.34907,-7.37927 -4.61423,-7.10195 -0.64364,0.67313 -3.05759,7.22265 -3.84705,10.43781 -1.674,6.81753 -2.06216,9.47679 -2.08131,14.25893 -0.0203,5.07417 0.27107,7.00751 1.75451,11.64167 1.67159,5.22193 3.78261,9.11472 9.78132,18.03713 2.306655,3.43088 2.311565,3.59817 0.0725,2.47035 z m 54.005195,-2.74365 c -0.39268,-5.72873 -1.30037,-8.76244 -4.24139,-14.1757 -0.94388,-1.73731 -1.68899,-3.18048 -1.6558,-3.20704 0.46982,-0.37598 4.25536,-0.96805 6.93952,-1.08536 5.58659,-0.24417 11.25374,0.77257 19.4485,3.48924 1.96542,0.65156 4.04902,1.21422 4.63021,1.25036 l 1.05671,0.0657 -0.0588,-5.02708 c -0.0323,-2.7649 -0.24731,-6.63443 -0.4777,-8.59896 -0.98597,-8.40718 -3.27518,-21.23326 -4.62787,-25.92917 -0.8821,-3.06222 -1.70671,-6.28767 -1.94035,-7.58961 -0.14469,-0.80626 -0.0801,-0.88255 1.49237,-1.76205 0.90398,-0.50562 2.89375,-1.83461 4.42172,-2.95331 1.52797,-1.1187 3.10297,-2.20273 3.49999,-2.40896 0.72154,-0.3748 0.72222,-0.37426 1.52013,1.20638 1.25378,2.48374 2.27518,5.19888 4.63344,12.31693 4.93242,14.88776 5.59841,17.65388 7.67616,31.88229 0.35063,2.4011 0.94043,6.38969 1.31066,8.86354 0.47081,3.14592 0.67331,5.59507 0.67368,8.14797 5.3e-4,3.52292 -0.0221,3.67266 -0.64891,4.29948 -0.80366,0.80366 -1.46704,0.81781 -6.22973,0.1329 -9.75094,-1.40227 -15.00975,-1.76784 -19.45195,-1.35223 -4.7864,0.44782 -7.55105,1.1132 -11.91292,2.86715 -2.17635,0.87513 -4.39033,1.70964 -4.91993,1.85447 l -0.96293,0.26333 z m -25.84644,-38.10636 c -0.87364,-0.6872 -1.66398,-2.52917 -2.17002,-5.05747 -0.54536,-2.72473 -0.8294,-6.77219 -0.48997,-6.98196 0.5755,-0.35568 4.99555,5.67869 5.89671,8.05034 0.6779,1.7841 0.63161,2.4841 -0.2266,3.42602 -0.9648,1.05891 -2.10792,1.27275 -3.01012,0.56307 z m -50.104975,-0.25279 c -2.02286,-1.23605 -1.89446,-2.81714 0.5195,-6.39718 0.9512,-1.41067 1.72946,-2.68814 1.72946,-2.83881 0,-0.4376 2.39226,-2.97702 2.80449,-2.97702 0.3024,0 0.34444,0.36806 0.21908,1.91823 -0.40581,5.01837 -1.34571,8.75833 -2.51589,10.01101 -0.83137,0.88999 -1.62999,0.9722 -2.75664,0.28377 z m 55.694785,-6.17989 c -0.65484,-0.31958 -1.99189,-1.37633 -2.97121,-2.34833 -2.31631,-2.29898 -3.64337,-4.92276 -3.64337,-7.20341 0,-1.33971 0.099,-1.6482 0.73245,-2.28162 1.06238,-1.06239 2.33332,-1.21358 4.7131,-0.5607 2.04842,0.56198 5.44024,2.10501 6.26214,2.84881 1.61842,1.46466 0.97777,5.4757 -1.43786,9.00223 -0.91652,1.33802 -1.76725,1.4644 -3.65525,0.54302 z M 71.725115,145.1425 c -1.62771,-1.1141 -2.65704,-4.02393 -2.66472,-7.53297 -0.004,-1.75069 0.0466,-1.92105 0.69461,-2.34563 1.23174,-0.80707 6.96112,-2.77803 8.07545,-2.77803 2.41206,0 3.89887,1.58262 3.54803,3.77666 -0.38419,2.40262 -3.37094,6.8775 -5.62585,8.42892 -1.60943,1.10731 -2.86352,1.24776 -4.02752,0.45105 z m 30.362835,-32.32416 c -3.523935,-1.31632 -7.219505,-5.26673 -9.627535,-10.29144 -1.66426,-3.472742 -1.27055,-3.428732 2.43922,0.27267 2.81028,2.80395 4.6426,4.06865 5.153905,3.55734 1.03139,-1.03138 1.65784,-7.647902 1.41943,-14.991702 -0.21984,-6.7715 -0.41957,-7.5169 -3.154525,-11.77289 -2.63702,-4.10357 -2.90518,-4.77458 -2.71673,-6.79812 0.27897,-2.99563 3.16457,-13.60363 5.750125,-21.13854 1.70707,-4.9748 2.46718,-6.74688 2.894,-6.74688 0.77773,0 3.31213,7.13485 5.94774,16.74414 1.86078,6.78432 2.55925,10.0023 2.59665,11.96315 0.0347,1.82036 -0.36992,2.74172 -2.96919,6.76104 -0.87878,1.35889 -1.86763,3.25106 -2.19743,4.20483 -0.56117,1.62287 -0.59526,2.09911 -0.53131,7.42268 0.0628,5.23034 0.35945,10.420772 0.75032,13.129512 0.15398,1.06711 0.17569,1.08684 0.9923,0.90187 1.46975,-0.3329 2.63894,-1.09765 4.67134,-3.05545 1.91655,-1.84622 3.08207,-2.69039 3.34774,-2.42472 0.20141,0.20141 -1.15733,2.75753 -2.73383,5.14296 -3.65207,5.52603 -8.54598,8.42178 -12.03222,7.11955 z m 26.5605,-3.04129 c -0.76684,-0.2732 -1.48122,-0.58443 -1.5875,-0.69162 -0.56097,-0.56581 5.04678,-3.57116 7.89685,-4.23213 2.13256,-0.49458 2.80588,-0.3408 3.03287,0.69266 0.61351,2.7933 -1.4152,4.48389 -5.5667,4.6389 -1.8304,0.0683 -2.70379,-0.026 -3.77552,-0.40781 z m -53.786735,-0.0325 c -1.67955,-0.30508 -3.90115,-1.30406 -4.36143,-1.96122 -0.41739,-0.5959 -0.51117,-2.20671 -0.16065,-2.75923 0.33905,-0.53444 1.64524,-0.77529 2.94996,-0.54393 1.50806,0.26741 6.24407,2.62619 7.56424,3.76739 l 1.00281,0.86686 -1.17467,0.29512 c -1.71161,0.43002 -4.43438,0.58674 -5.82026,0.33501 z m 46.288255,-2.76953 c -1.3782,-0.5267 -3.14607,-1.69358 -3.14417,-2.0753 0.003,-0.55296 0.65821,-1.6258 1.99243,-3.26121 2.04373,-2.505102 4.43565,-6.330222 6.24631,-9.989012 l 1.68151,-3.39781 1.33727,0.10799 c 2.74657,0.22179 5.42556,2.14063 6.75286,4.83676 0.73616,1.49535 0.82334,1.90258 0.72796,3.40048 -0.1559,2.44836 -1.04324,3.734082 -4.50493,6.527472 -3.78218,3.05201 -5.80448,4.06821 -8.26263,4.15195 -1.10751,0.0377 -2.26128,-0.0853 -2.82661,-0.30132 z m -38.335375,-0.23989 c -2.30923,-0.52615 -4.97664,-2.10357 -7.36125,-4.3532 -2.35954,-2.22597 -4.01583,-4.704802 -4.01583,-6.010142 0,-0.9983 1.72945,-4.63136 2.89365,-6.07868 1.19307,-1.48323 2.85012,-2.51934 4.03136,-2.52072 1.54272,-0.002 2.39462,0.95385 4.44612,4.98752 1.15321,2.26746 2.68962,4.74204 4.13069,6.65302 1.26199,1.673492 2.59445,3.492272 2.96104,4.041742 l 0.66652,0.99903 -0.59489,0.63323 c -1.39345,1.48326 -4.62015,2.2263 -7.15741,1.6482 z m 14.94358,-2.79028 c -1.53416,-1.24741 -4.61633,-4.665062 -5.80682,-6.438852 -1.07078,-1.59543 -3.29844,-8.2982 -4.23175,-12.73281 -0.21955,-1.0432 -0.81723,-3.74219 -1.32818,-5.99776 -1.46708,-6.47646 -2.4942,-12.45452 -2.68794,-15.64451 -0.17571,-2.89306 -0.17008,-2.93505 0.35604,-2.65348 1.32573,0.70951 3.96183,4.48345 7.88363,11.28653 1.42612,2.47385 3.28388,5.68854 4.12836,7.14375 1.85165,3.19076 2.94924,5.56755 3.54772,7.68246 0.608345,2.14979 0.839355,10.74172 0.396605,14.751092 -0.467835,4.23656 -0.377465,4.13235 -2.257665,2.60358 z m -1.84673,-7.098022 c -0.54108,-1.53439 -1.56587,-3.75762 -2.27731,-4.9405 l -1.29353,-2.15069 0.003,1.32291 c 0.004,1.82798 0.56968,3.78234 1.70538,5.88815 0.96415,1.78771 2.56567,3.512752 2.74943,2.96148 0.0534,-0.16035 -0.34552,-1.54696 -0.88661,-3.08135 z m 12.528915,5.542662 c -0.54076,-3.496372 -0.46688,-11.647702 0.1253,-13.824482 1.21341,-4.46042 1.90514,-5.9808 5.92399,-13.02072 5.85142,-10.25006 9.05941,-15.02511 10.0942,-15.02511 0.86726,0 -0.16004,8.36264 -2.11266,17.19792 -2.0218,9.14833 -3.77337,15.2263 -5.36493,18.61643 -1.42636,3.03824 -6.46125,8.371072 -7.90339,8.371072 -0.30479,0 -0.49269,-0.57047 -0.76251,-2.31511 z m 4.62127,-3.114632 c 1.30912,-1.2714 2.71477,-4.32288 3.06767,-6.65949 0.41854,-2.77124 0.39159,-3.00462 -0.25388,-2.19827 -1.41918,1.77289 -3.52352,6.38242 -4.07659,8.92968 -0.24019,1.106242 0.0677,1.088702 1.2628,-0.0719 z m 44.69442,-7.075 c -0.14285,-0.18016 -1.21422,-1.99443 -2.38082,-4.03172 -10.48479,-18.31009 -20.25764,-32.60761 -34.45228,-50.40313 -1.68309,-2.11005 -3.29624,-4.14736 -3.58478,-4.52735 -1.79833,-2.36828 -11.20462,-13.96124 -11.70905,-14.43105 -0.73948,-0.6887 -1.25486,-2.20827 -0.74897,-2.20827 1.21598,0 6.24422,2.70523 9.28757,4.99677 12.95803,9.75698 34.94623,36.02758 46.92015,56.05828 3.40249,5.6919 3.42656,5.8648 1.28659,9.24415 -0.81113,1.28091 -1.78742,2.83222 -2.16952,3.44734 -0.87838,1.41404 -2.07799,2.32273 -2.44889,1.85498 z M 50.104465,91.695978 c -0.72601,-0.35163 -4.88066,-6.63448 -5.21467,-7.88585 -0.1402,-0.52525 -0.17747,-1.36691 -0.0828,-1.87037 0.20972,-1.11551 2.09616,-4.34452 5.01742,-8.58829 6.03365,-8.7652 5.83094,-8.476 10.20006,-14.55208 4.61693,-6.42069 9.40427,-12.58684 12.42793,-16.0073 1.22207,-1.38244 3.32691,-3.76369 4.67742,-5.29166 3.7327,-4.22319 12.32419,-12.16796 17.20014,-15.90538 3.27144,-2.50757 8.795225,-5.41182 9.311385,-4.89566 0.12168,0.12168 -2.29093,3.33778 -6.074285,8.09725 -1.56329,1.96661 -3.76594,4.75063 -4.89479,6.1867 -1.12885,1.43608 -2.53841,3.22201 -3.13236,3.96875 -13.01881,16.36775 -27.8023,37.06283 -33.61668,47.05924 -2.04032,3.50785 -4.85862,9.10867 -4.85862,9.65557 0,0.3955 -0.19161,0.4013 -0.96013,0.0291 z M -8.5989452,72.275658 c -1.3938,-0.19837 -5.1790398,-0.34747 -9.1281298,-0.35956 -5.86677,-0.018 -6.86767,-0.081 -7.67292,-0.48327 -1.64882,-0.82368 -1.88689,-1.72029 -2.58163,-9.72303 -0.67359,-7.75901 -0.63324,-10.34791 0.1903,-12.20965 0.51299,-1.15971 0.53803,-1.17618 1.5226,-1.00157 0.55056,0.0976 2.25118,0.63832 3.77915,1.20152 1.52797,0.5632 4.50453,1.50754 6.61458,2.09853 8.5807198,2.40332 15.73181976,5.17768 16.50491976,6.4033 0.21276,0.33729 -0.17637,1.36278 -1.75179996,4.61658 -2.13638,4.41235 -3.02006,6.74965 -3.28631,8.69214 -0.1874,1.36727 -0.0873,1.349 -4.19076,0.76501 z M 213.26875,71.069338 c -0.50802,-2.58232 -1.7808,-5.91833 -3.61219,-9.46783 -0.93173,-1.80581 -1.69405,-3.37012 -1.69405,-3.47624 0,-0.30389 3.89813,-2.23803 6.08542,-3.0194 1.0914,-0.38989 5.10301,-1.59061 8.91468,-2.66827 3.88184,-1.09751 8.00465,-2.44316 9.37273,-3.05916 3.02932,-1.36404 3.57463,-1.27563 4.27435,0.69296 0.40854,1.14944 0.45418,2.03631 0.35372,6.8759 -0.1187,5.71819 -0.49544,8.82596 -1.52805,12.60468 -0.54213,1.98386 -0.57015,2.02428 -1.51106,2.1799 -0.52726,0.0872 -3.53565,0.15987 -6.68531,0.16147 -5.05153,0.003 -8.11125,0.16617 -12.42816,0.66452 l -1.22148,0.141 z M 24.606255,63.394358 c -0.50932,-0.13865 -3.72401,-1.61672 -7.14375,-3.28459 -6.54392,-3.1916 -9.1540102,-4.08851 -11.8980002,-4.08851 -0.90455,0 -1.69736,0.15336 -2.0082,0.38846 -1.18714,0.89791 -1.66151,0.62209 -8.63135,-5.01867 -9.2470198,-7.4837 -12.3847998,-10.29207 -14.4094198,-12.89664 -1.75479,-2.25747 -2.29341,-3.64932 -2.15464,-5.56784 0.10117,-1.39868 0.491,-2.32426 3.27022,-7.76466 2.06332,-4.03901 3.29762,-6.17767 3.56643,-6.17951 1.09807,-0.007 3.197,1.4651 5.5520398,3.89531 2.77649,2.8651 6.76183,6.42657 12.97282,11.59306 2.2656,1.88459 6.4327902,5.3501 9.2604202,7.70112 2.82763,2.35103 5.64055,4.79181 6.25094,5.42396 1.49074,1.54388 4.24258,7.09064 5.75517,11.60041 1.59749,4.7629 1.59978,4.73778 -0.38268,4.1981 z m 157.837235,-0.56008 c 0.46083,-2.11223 2.4233,-7.25503 4.0638,-10.64948 1.52003,-3.14518 2.02624,-3.92994 3.35447,-5.20025 1.60481,-1.53483 5.55047,-4.78171 9.76637,-8.03672 5.37781,-4.15209 9.52951,-7.72915 14.33751,-12.35306 5.03801,-4.84508 6.99389,-6.43607 8.8551,-7.20302 l 0.96761,-0.39872 0.69614,1.25005 c 1.20886,2.17081 5.07791,10.20202 5.42743,11.26611 0.4314,1.31328 0.24731,3.71489 -0.38828,5.0652 -0.79933,1.69824 -8.14186,8.70085 -14.98613,14.29237 -8.39808,6.86094 -7.3731,6.22184 -9.04933,5.64253 -3.00672,-1.03913 -5.72268,-0.37647 -13.13055,3.20368 -4.79916,2.31938 -8.88845,3.98121 -9.79665,3.98121 -0.20631,0 -0.24435,-0.27843 -0.11749,-0.8599 z"
       style="fill:#348951;stroke-width:1;fill-opacity:1" />
  </g>
</svg>
